<?xml version="1.0" standalone="no"?>
<!DOCTYPE svg PUBLIC "-//W3C//DTD SVG 20010904//EN"
 "http://www.w3.org/TR/2001/REC-SVG-20010904/DTD/svg10.dtd">
<svg version="1.0" xmlns="http://www.w3.org/2000/svg"
 width="1500.000000pt" height="1500.000000pt" viewBox="0 0 1500.000000 1500.000000"
 preserveAspectRatio="xMidYMid meet">
<metadata>
Created by potrace 1.14, written by Peter Selinger 2001-2017
</metadata>
<g transform="translate(0.000000,1500.000000) scale(0.100000,-0.100000)"
fill="#000000" stroke="none">
<path d="M1200 10925 l0 -95 160 -1 c88 -1 163 -2 168 -3 4 -1 34 -6 66 -10
148 -20 337 -108 431 -201 68 -67 100 -127 120 -224 21 -100 24 -126 32 -256
10 -151 11 -5094 1 -5230 -23 -313 -65 -444 -179 -549 -78 -72 -200 -137 -276
-147 -5 -1 -18 -5 -30 -10 -20 -7 -55 -13 -163 -24 -14 -2 -94 -3 -177 -4
l-153 -1 0 -95 0 -95 1483 0 1483 0 -1 92 c0 50 -5 93 -10 94 -6 1 -93 5 -195
7 -206 6 -212 7 -325 43 -174 57 -322 158 -378 261 -40 74 -58 155 -75 338
-10 110 -9 5229 1 5335 17 170 48 305 90 386 26 51 96 122 165 168 137 91 243
116 522 125 l205 6 0 90 0 90 -1482 3 -1483 2 0 -95z"/>
<path d="M4889 11003 c-4 -74 -3 -156 1 -163 3 -4 60 -11 126 -14 67 -4 132
-9 145 -11 13 -2 44 -6 69 -9 237 -29 459 -165 534 -330 29 -63 61 -172 72
-241 4 -27 8 -55 10 -62 15 -77 18 -535 18 -2668 1 -2220 -2 -2628 -18 -2740
-34 -238 -68 -319 -175 -417 -56 -53 -161 -112 -241 -138 -75 -23 -212 -38
-370 -40 -90 0 -166 -3 -168 -5 -3 -2 -5 -44 -6 -92 l-1 -88 1206 -3 1206 -2
0 95 0 95 -151 1 c-204 0 -260 5 -371 34 -116 29 -201 73 -277 143 -94 88
-135 198 -163 447 -2 22 -7 94 -11 160 -8 144 -11 4899 -3 4922 3 10 12 -3 26
-38 12 -30 72 -164 133 -299 61 -135 149 -328 195 -430 45 -102 96 -214 113
-250 39 -86 57 -127 137 -305 37 -82 72 -159 78 -170 6 -11 12 -22 12 -25 2
-7 17 -42 123 -275 366 -811 792 -1756 805 -1785 8 -19 28 -64 45 -100 17 -36
74 -162 127 -280 92 -204 112 -248 169 -372 38 -84 202 -449 219 -488 8 -19
34 -75 57 -124 23 -49 45 -99 50 -110 7 -19 254 -566 330 -731 18 -38 36 -80
41 -93 8 -22 13 -23 96 -20 l87 3 42 95 c24 52 56 124 73 160 78 171 96 211
132 292 21 48 53 118 70 155 17 38 38 84 46 103 9 19 31 68 49 108 19 40 34
75 34 77 0 2 18 43 41 92 22 48 49 106 59 128 155 345 208 462 236 523 19 41
34 75 34 77 0 2 15 37 34 77 18 40 40 89 49 108 8 19 30 67 47 105 18 39 72
158 120 265 48 107 99 220 113 250 14 30 66 147 117 260 51 113 103 230 117
260 14 30 96 213 183 405 86 193 167 370 178 395 17 38 161 356 234 520 11 25
31 68 43 95 13 28 95 210 184 407 88 196 169 376 180 400 11 23 63 140 116
258 54 118 106 233 116 255 18 39 19 -10 16 -2490 -2 -1392 -6 -2541 -9 -2555
-4 -14 -9 -47 -13 -75 -11 -92 -45 -217 -73 -269 -34 -64 -122 -151 -196 -195
-81 -48 -207 -84 -341 -96 -16 -1 -101 -3 -187 -4 l-158 -1 0 -95 0 -95 1470
0 1470 0 0 95 0 95 -157 1 c-87 1 -171 3 -188 5 -90 9 -117 14 -176 29 -148
38 -299 140 -349 238 -36 69 -65 173 -85 307 -17 115 -20 547 -20 2755 0 2179
3 2656 20 2744 1 9 6 36 10 61 30 198 109 324 259 414 53 32 150 70 203 80
108 21 140 24 331 25 l152 1 0 95 0 95 -981 -2 -982 -3 -39 -90 c-22 -49 -53
-118 -69 -153 -16 -35 -29 -65 -29 -67 0 -2 -22 -51 -50 -110 -27 -59 -50
-108 -50 -110 0 -2 -24 -57 -54 -122 -29 -65 -81 -181 -116 -258 -34 -77 -74
-165 -87 -195 -14 -30 -54 -118 -88 -195 -34 -77 -77 -170 -94 -208 -17 -37
-31 -69 -31 -71 0 -2 -15 -37 -34 -78 -19 -40 -63 -138 -99 -218 -101 -226
-212 -474 -523 -1165 -158 -352 -298 -665 -311 -695 -14 -30 -36 -80 -50 -110
-14 -30 -31 -68 -38 -85 -7 -16 -29 -65 -49 -108 -20 -44 -36 -81 -36 -83 0
-2 -20 -47 -45 -100 -25 -52 -45 -97 -45 -99 0 -3 -14 -35 -31 -72 -39 -86
-71 -156 -96 -213 -37 -83 -190 -424 -225 -500 -19 -41 -65 -146 -104 -232
-38 -87 -71 -158 -74 -158 -3 0 -30 56 -60 123 -30 67 -78 173 -107 236 -29
62 -53 115 -53 116 0 2 -17 41 -39 87 -68 144 -102 221 -141 308 -21 47 -53
119 -73 160 -82 175 -117 252 -117 255 0 2 -18 43 -40 91 -22 47 -70 152 -107
233 -36 80 -81 180 -100 221 -19 41 -80 174 -135 295 -55 121 -118 258 -139
303 -22 46 -39 85 -39 87 0 4 -46 103 -121 264 -27 57 -49 105 -49 108 0 2
-16 39 -36 81 -20 42 -92 199 -159 347 -138 304 -429 941 -467 1025 -14 30
-39 84 -56 120 -16 36 -84 184 -150 330 -66 146 -136 299 -155 340 -19 41 -45
98 -57 125 -12 28 -34 75 -47 105 -14 30 -34 74 -44 98 l-18 42 -981 0 c-926
0 -980 -1 -981 -17z"/>
</g>
</svg>
