<?xml version="1.0" encoding="utf-8"?>
<!-- Generator: Adobe Illustrator 26.4.1, SVG Export Plug-In . SVG Version: 6.00 Build 0)  -->
<svg version="1.0" id="Ebene_1" xmlns="http://www.w3.org/2000/svg" xmlns:xlink="http://www.w3.org/1999/xlink" x="0px" y="0px"
	 viewBox="0 0 200 176.7" enable-background="new 0 0 200 176.7" xml:space="preserve">
<g>
	<g>
		<path fill="#82643C" d="M0.1,88.4v-1.6c10.6-0.8,11.7-2,11.7-13.8V15.4c0-11.7-1.1-13-11.7-13.8V0h34.1v1.6
			c-10.6,0.8-11.7,2-11.7,13.8V73c0,11.7,1.1,13,11.7,13.8v1.6H0.1z"/>
		<path fill="#82643C" d="M130.7,1.6V0H96.6v1.6c10.6,0.8,11.7,2,11.7,13.8v24.3H65.4V15.4c0-11.7,1.1-13,11.7-13.8V0H43v1.6
			c10.6,0.8,11.7,2,11.7,13.8V73c0,11.7-1.1,13-11.7,13.8v1.6h34.1v-1.6c-10.6-0.8-11.7-2-11.7-13.8V43.5h42.9V73
			c0,11.7-1.1,13-11.7,13.8v1.6h34.1v-1.6c-10.6-0.8-11.7-2-11.7-13.8V15.4C119,3.7,120.1,2.5,130.7,1.6z"/>
	</g>
	<g>
		<path fill="#82643C" d="M8.3,118.3c2.3,0,4.2,0.4,5.5,1.4c1.3,0.9,2.1,2.4,2.1,4.6c0,4.2-3.2,6.2-6.3,6.7c-0.5,0-1.1,0-1.5,0
			l-2.4-0.6v5.1c0,2.8,0.3,2.9,3.2,3.1v0.9H0.1v-0.9c2.6-0.2,2.9-0.5,2.9-3.2v-13c0-2.9-0.3-3-2.7-3.2v-0.9H8.3z M5.7,129.2
			c0.4,0.2,1.3,0.4,2.4,0.4c2.1,0,4.7-1.1,4.7-5.3c0-3.5-2.2-5-4.9-5c-0.9,0-1.6,0.2-1.8,0.4c-0.3,0.2-0.4,0.6-0.4,1.5V129.2z"/>
		<path fill="#82643C" d="M40.4,134.3c-0.2,1.1-0.8,4.1-1.1,5.1H23.6v-0.9c3-0.2,3.2-0.5,3.2-3.1v-12.9c0-2.9-0.3-3-2.8-3.2v-0.9
			h14.5c0,0.8,0.2,3,0.3,4.7l-0.9,0.2c-0.3-1.4-0.6-2.1-1-2.8c-0.5-0.7-1.3-0.9-3.7-0.9h-2.5c-1,0-1.1,0.1-1.1,1v7.4h3.1
			c2.9,0,3.1-0.3,3.5-2.4h0.9v6.2h-0.9c-0.4-2.3-0.6-2.5-3.5-2.5h-3.1v6.1c0,1.5,0.2,2.2,0.8,2.6c0.6,0.4,1.8,0.4,3.4,0.4
			c2.5,0,3.4-0.3,4.1-1.1c0.6-0.6,1.2-1.8,1.6-3.1L40.4,134.3z"/>
		<path fill="#82643C" d="M68.5,139.7c-0.4,0-0.7,0-1.1,0c-2.4-0.1-3.8-0.8-5.3-3c-1.1-1.6-2.3-3.6-3.3-5.2
			c-0.6-0.9-1.1-1.3-2.8-1.3h-1v5.2c0,2.8,0.3,3,2.9,3.2v0.9h-8.5v-0.9c2.7-0.2,3-0.4,3-3.2v-13.1c0-2.8-0.3-2.9-2.8-3.1v-0.9h8.1
			c2.4,0,4,0.3,5.2,1.1c1.3,0.8,2.1,2.3,2.1,4.3c0,2.8-1.7,4.5-4.1,5.6c0.6,1.1,1.9,3.2,2.9,4.7c1.2,1.7,1.9,2.5,2.6,3.4
			c0.9,1,1.6,1.3,2.3,1.5L68.5,139.7z M56.6,129.1c1.7,0,2.7-0.3,3.5-0.9c1.3-1,1.8-2.3,1.8-4c0-3.5-2.3-4.8-4.8-4.8
			c-0.9,0-1.5,0.1-1.8,0.3c-0.2,0.2-0.4,0.6-0.4,1.4v8H56.6z"/>
		<path fill="#82643C" d="M87.2,123.3c-0.6-2.1-1.4-4.3-4.3-4.3c-2.5,0-3.6,1.8-3.6,3.6c0,2.4,1.6,3.5,4.1,4.8
			c2.5,1.3,5.6,2.8,5.6,6.5c0,3.4-2.9,6.1-7.2,6.1c-1.3,0-2.4-0.3-3.2-0.5c-0.8-0.3-1.3-0.5-1.6-0.7c-0.3-0.7-0.7-3.5-0.9-5l0.9-0.2
			c0.5,2,2,5.3,5.3,5.3c2.4,0,3.9-1.5,3.9-3.9c0-2.4-1.8-3.5-4.2-4.8c-2.1-1.1-5.4-2.7-5.4-6.4c0-3.1,2.5-5.8,6.7-5.8
			c1.5,0,2.9,0.4,4.1,0.7c0.1,1.2,0.3,2.4,0.6,4.5L87.2,123.3z"/>
		<path fill="#82643C" d="M119.3,128.6c0,7-4.9,11.3-10.9,11.3c-5.9,0-10.6-4.6-10.6-10.8c0-5.8,4.1-11.3,10.9-11.3
			C114.4,117.8,119.3,122.1,119.3,128.6z M101.3,128.2c0,6.1,3.3,10.6,7.9,10.6c3.6,0,6.9-3,6.9-9.3c0-6.9-3.6-10.5-7.8-10.5
			C104.6,119,101.3,122.1,101.3,128.2z"/>
		<path fill="#82643C" d="M149.2,119.2c-1.8,0.1-2.6,0.5-2.7,1.9c-0.1,1-0.2,2.4-0.2,5.5v13.1h-1l-13.8-17h-0.1v8.2
			c0,3,0.1,4.5,0.2,5.5c0.2,1.7,0.9,2,3.1,2.2v0.9H127v-0.9c1.9-0.1,2.7-0.5,2.9-2.1c0.1-1,0.2-2.6,0.2-5.6v-7.1
			c0-2.4-0.1-2.5-0.7-3.3c-0.6-0.8-1.4-1.1-2.9-1.2v-0.9h4.8l13.5,16.3h0.1v-8c0-3-0.1-4.5-0.2-5.4c-0.2-1.5-0.9-1.9-3.2-2v-0.9h7.7
			V119.2z"/>
		<path fill="#82643C" d="M168.5,139.4v-0.9c2-0.3,2.3-0.5,1.9-1.8c-0.4-1.3-1.1-3-1.8-5h-6.9c-0.5,1.5-1,2.8-1.4,4.2
			c-0.7,2-0.4,2.4,2,2.6v0.9h-7.1v-0.9c2-0.3,2.5-0.5,3.6-3.3l6.7-17.1l1-0.3c2,5.6,4.2,11.8,6.3,17.4c1,2.8,1.5,3.1,3.6,3.3v0.9
			H168.5z M165.3,122.1L165.3,122.1c-1.1,2.8-2.1,5.6-3.1,8.3h6L165.3,122.1z"/>
		<path fill="#82643C" d="M200,134.3c-0.2,1-0.9,4.1-1.2,5.1h-14.7v-0.9c2.7-0.2,3-0.4,3-3.2v-13c0-2.8-0.2-2.9-2.9-3.1v-0.9h8.5
			v0.9c-2.6,0.2-2.9,0.4-2.9,3.1v12.8c0,1.8,0.2,2.4,0.7,2.7c0.6,0.4,1.8,0.4,3.1,0.4c1.8,0,2.9-0.2,3.6-1c0.6-0.6,1.2-1.7,1.7-3.2
			L200,134.3z"/>
	</g>
	<g>
		<path fill="#82643C" d="M19.5,170.8c-0.5,1.5-1.3,3.9-1.9,5c-0.9,0.2-3.6,0.9-6,0.9c-8.1,0-11.6-5.6-11.6-10.8
			c0-6.8,5.3-11.3,12.5-11.3c2.6,0,4.8,0.7,5.8,0.9c0.3,1.9,0.5,3.2,0.7,4.9l-1,0.2c-0.8-3.4-2.8-4.8-6.3-4.8
			c-5.4,0-8.3,4.6-8.3,9.5c0,6.1,3.6,10.2,8.5,10.2c3.3,0,5.1-1.8,6.7-5L19.5,170.8z"/>
		<path fill="#82643C" d="M49.2,165.4c0,7-4.9,11.3-10.9,11.3c-5.9,0-10.6-4.6-10.6-10.8c0-5.8,4.1-11.3,10.9-11.3
			C44.2,154.6,49.2,158.9,49.2,165.4z M31.1,164.9c0,6.1,3.3,10.6,7.9,10.6c3.6,0,6.9-3,6.9-9.3c0-6.9-3.6-10.5-7.8-10.5
			C34.4,155.7,31.1,158.9,31.1,164.9z"/>
		<path fill="#82643C" d="M68,176.2v-0.9c2-0.3,2.3-0.5,1.9-1.8c-0.4-1.3-1.1-3-1.8-5h-6.9c-0.5,1.5-1,2.8-1.4,4.2
			c-0.7,2-0.4,2.4,2,2.6v0.9h-7.1v-0.9c2-0.3,2.5-0.5,3.6-3.3l6.7-17.1l1-0.3c2,5.6,4.2,11.8,6.3,17.4c1,2.8,1.5,3.1,3.6,3.3v0.9H68
			z M64.9,158.8L64.9,158.8c-1.1,2.8-2.1,5.6-3.1,8.3h6L64.9,158.8z"/>
		<path fill="#82643C" d="M101.1,170.8c-0.5,1.5-1.3,3.9-1.9,5c-0.9,0.2-3.6,0.9-6,0.9c-8.1,0-11.6-5.6-11.6-10.8
			c0-6.8,5.3-11.3,12.5-11.3c2.6,0,4.8,0.7,5.8,0.9c0.3,1.9,0.5,3.2,0.7,4.9l-1,0.2c-0.8-3.4-2.8-4.8-6.3-4.8
			c-5.4,0-8.3,4.6-8.3,9.5c0,6.1,3.6,10.2,8.5,10.2c3.3,0,5.1-1.8,6.7-5L101.1,170.8z"/>
		<path fill="#82643C" d="M130.7,156c-2.7,0.2-2.9,0.4-2.9,3.1v13.1c0,2.7,0.3,2.9,2.9,3.1v0.9H122v-0.9c2.8-0.2,3.1-0.4,3.1-3.1
			v-6.5H114v6.5c0,2.7,0.3,2.9,2.9,3.1v0.9h-8.5v-0.9c2.6-0.2,2.9-0.4,2.9-3.1v-13.1c0-2.7-0.3-2.9-2.9-3.1v-0.9h8.4v0.9
			c-2.5,0.2-2.7,0.4-2.7,3.1v5.3H125v-5.3c0-2.7-0.3-2.9-2.8-3.1v-0.9h8.5V156z"/>
	</g>
</g>
</svg>
