<?xml version="1.0" encoding="utf-8"?>
<!-- Generator: Adobe Illustrator 26.4.1, SVG Export Plug-In . SVG Version: 6.00 Build 0)  -->
<svg version="1.0" id="Ebene_1" xmlns="http://www.w3.org/2000/svg" xmlns:xlink="http://www.w3.org/1999/xlink" x="0px" y="0px"
	 viewBox="0 0 340 60" enable-background="new 0 0 340 60" xml:space="preserve">
<g>
	<path fill="#FFFFFF" d="M0,59.3v-1.1c7-0.5,7.8-1.4,7.8-9.1V10.9C7.8,3.2,7,2.4,0,1.8V0.7h22.6v1.1c-7,0.5-7.8,1.4-7.8,9.1v38.1
		c0,7.8,0.7,8.6,7.8,9.1v1.1H0z"/>
	<path fill="#FFFFFF" d="M86.5,1.8V0.7H63.9v1.1c7,0.5,7.8,1.4,7.8,9.1V27H43.2V10.9c0-7.8,0.7-8.6,7.8-9.1V0.7H28.4v1.1
		c7,0.5,7.8,1.4,7.8,9.1v38.1c0,7.8-0.7,8.6-7.8,9.1v1.1H51v-1.1c-7-0.5-7.8-1.4-7.8-9.1V29.5h28.4v19.5c0,7.8-0.7,8.6-7.8,9.1v1.1
		h22.6v-1.1c-7-0.5-7.8-1.4-7.8-9.1V10.9C78.7,3.2,79.4,2.4,86.5,1.8z"/>
</g>
<path fill="#FFFFFF" d="M112.6,22.6c1.5,0,2.8,0.3,3.6,0.9c0.8,0.6,1.4,1.6,1.4,3c0,2.8-2.1,4.1-4.2,4.4c-0.3,0-0.7,0-1,0l-1.6-0.4
	v3.4c0,1.8,0.2,1.9,2.1,2.1v0.6h-5.8v-0.6c1.7-0.1,1.9-0.3,1.9-2.1v-8.6c0-1.9-0.2-2-1.8-2.1v-0.6H112.6z M110.8,29.8
	c0.3,0.1,0.9,0.3,1.6,0.3c1.4,0,3.1-0.8,3.1-3.5c0-2.3-1.5-3.3-3.2-3.3c-0.6,0-1.1,0.1-1.2,0.3c-0.2,0.2-0.2,0.4-0.2,1V29.8z"/>
<path fill="#FFFFFF" d="M133.8,33.1c-0.1,0.7-0.6,2.7-0.8,3.4h-10.4v-0.6c2-0.2,2.1-0.3,2.1-2.1v-8.6c0-1.9-0.2-2-1.9-2.2v-0.6h9.6
	c0,0.5,0.1,2,0.2,3.1l-0.6,0.1c-0.2-0.9-0.4-1.4-0.7-1.9c-0.3-0.5-0.9-0.6-2.4-0.6h-1.6c-0.7,0-0.7,0-0.7,0.7v4.9h2
	c1.9,0,2-0.2,2.3-1.6h0.6v4.1H131c-0.3-1.5-0.4-1.7-2.3-1.7h-2v4.1c0,1,0.1,1.5,0.5,1.7c0.4,0.3,1.2,0.3,2.2,0.3
	c1.6,0,2.2-0.2,2.7-0.7c0.4-0.4,0.8-1.2,1.1-2L133.8,33.1z"/>
<path fill="#FFFFFF" d="M152.5,36.7c-0.3,0-0.5,0-0.8,0c-1.6-0.1-2.5-0.6-3.5-2c-0.8-1.1-1.5-2.4-2.2-3.4c-0.4-0.6-0.7-0.9-1.9-0.9
	h-0.7v3.4c0,1.8,0.2,2,1.9,2.1v0.6h-5.7v-0.6c1.8-0.1,2-0.3,2-2.1v-8.6c0-1.8-0.2-1.9-1.9-2v-0.6h5.3c1.6,0,2.6,0.2,3.4,0.7
	c0.9,0.6,1.4,1.5,1.4,2.8c0,1.9-1.1,3-2.7,3.7c0.4,0.7,1.3,2.2,1.9,3.1c0.8,1.1,1.2,1.7,1.7,2.2c0.6,0.6,1.1,0.9,1.5,1L152.5,36.7z
	 M144.5,29.7c1.1,0,1.8-0.2,2.3-0.6c0.8-0.6,1.2-1.5,1.2-2.7c0-2.3-1.5-3.2-3.2-3.2c-0.6,0-1,0.1-1.2,0.2c-0.2,0.1-0.2,0.4-0.2,0.9
	v5.3H144.5z"/>
<path fill="#FFFFFF" d="M164.8,25.8c-0.4-1.4-0.9-2.9-2.8-2.9c-1.7,0-2.4,1.2-2.4,2.4c0,1.6,1,2.3,2.7,3.2c1.7,0.9,3.7,1.9,3.7,4.3
	c0,2.3-1.9,4.1-4.8,4.1c-0.9,0-1.6-0.2-2.1-0.3c-0.5-0.2-0.9-0.3-1.1-0.5c-0.2-0.5-0.5-2.3-0.6-3.3l0.6-0.2c0.3,1.3,1.3,3.5,3.5,3.5
	c1.6,0,2.6-1,2.6-2.6c0-1.6-1.2-2.3-2.8-3.2c-1.4-0.7-3.6-1.8-3.6-4.2c0-2.1,1.7-3.8,4.4-3.8c1,0,1.9,0.2,2.7,0.5
	c0.1,0.8,0.2,1.6,0.4,3L164.8,25.8z"/>
<path fill="#FFFFFF" d="M186.1,29.4c0,4.6-3.2,7.5-7.2,7.5c-3.9,0-7-3-7-7.2c0-3.9,2.7-7.5,7.2-7.5
	C182.8,22.2,186.1,25.1,186.1,29.4z M174.1,29.1c0,4,2.2,7,5.3,7c2.4,0,4.5-2,4.5-6.1c0-4.5-2.4-6.9-5.2-6.9
	C176.3,23,174.1,25.1,174.1,29.1z"/>
<path fill="#FFFFFF" d="M205.9,23.2c-1.2,0.1-1.7,0.3-1.8,1.3c-0.1,0.6-0.1,1.6-0.1,3.6v8.7h-0.7l-9.2-11.3h0v5.4c0,2,0.1,3,0.1,3.6
	c0.1,1.1,0.6,1.4,2.1,1.4v0.6h-5.1v-0.6c1.2-0.1,1.8-0.3,1.9-1.4c0.1-0.7,0.1-1.7,0.1-3.7v-4.7c0-1.6,0-1.7-0.4-2.2
	c-0.4-0.5-0.9-0.7-1.9-0.8v-0.6h3.2l9,10.8h0.1v-5.3c0-2-0.1-3-0.2-3.6c-0.1-1-0.6-1.2-2.1-1.3v-0.6h5.1V23.2z"/>
<path fill="#FFFFFF" d="M218.6,36.5v-0.6c1.4-0.2,1.5-0.3,1.3-1.2c-0.3-0.8-0.7-2-1.2-3.3h-4.6c-0.3,1-0.7,1.9-0.9,2.8
	c-0.5,1.4-0.3,1.6,1.3,1.7v0.6h-4.7v-0.6c1.4-0.2,1.7-0.3,2.4-2.2l4.5-11.3l0.7-0.2c1.3,3.7,2.8,7.8,4.2,11.5c0.7,1.9,1,2,2.4,2.2
	v0.6H218.6z M216.5,25L216.5,25c-0.7,1.9-1.4,3.7-2.1,5.5h4L216.5,25z"/>
<path fill="#FFFFFF" d="M239.5,33.2c-0.1,0.7-0.6,2.7-0.8,3.4H229v-0.6c1.8-0.1,2-0.3,2-2.1v-8.6c0-1.8-0.2-1.9-1.9-2.1v-0.6h5.6
	v0.6c-1.7,0.1-1.9,0.2-1.9,2.1v8.5c0,1.2,0.1,1.6,0.5,1.8c0.4,0.2,1.2,0.3,2.1,0.3c1.2,0,1.9-0.1,2.4-0.7c0.4-0.4,0.8-1.1,1.1-2.1
	L239.5,33.2z"/>
<g>
	<path fill="#FFFFFF" d="M266.3,33c-0.3,1-0.8,2.6-1.2,3.3c-0.6,0.2-2.4,0.6-4,0.6c-5.4,0-7.7-3.7-7.7-7.1c0-4.5,3.5-7.5,8.3-7.5
		c1.7,0,3.2,0.5,3.8,0.6c0.2,1.2,0.3,2.1,0.4,3.2l-0.6,0.2c-0.6-2.3-1.9-3.2-4.2-3.2c-3.6,0-5.5,3-5.5,6.3c0,4,2.4,6.8,5.6,6.8
		c2.2,0,3.4-1.2,4.4-3.3L266.3,33z"/>
	<path fill="#FFFFFF" d="M286,29.4c0,4.6-3.2,7.5-7.2,7.5c-3.9,0-7-3-7-7.2c0-3.9,2.7-7.5,7.2-7.5C282.7,22.2,286,25.1,286,29.4z
		 M274,29.1c0,4,2.2,7,5.3,7c2.4,0,4.5-2,4.5-6.1c0-4.5-2.4-6.9-5.2-6.9C276.2,23,274,25.1,274,29.1z"/>
	<path fill="#FFFFFF" d="M298.5,36.5v-0.6c1.4-0.2,1.5-0.3,1.3-1.2c-0.3-0.8-0.7-2-1.2-3.3H294c-0.3,1-0.7,1.9-0.9,2.8
		c-0.5,1.4-0.3,1.6,1.3,1.7v0.6h-4.7v-0.6c1.4-0.2,1.7-0.3,2.4-2.2l4.5-11.3l0.7-0.2c1.3,3.7,2.8,7.8,4.2,11.5c0.7,1.9,1,2,2.4,2.2
		v0.6H298.5z M296.4,25L296.4,25c-0.7,1.9-1.4,3.7-2.1,5.5h4L296.4,25z"/>
	<path fill="#FFFFFF" d="M320.4,33c-0.3,1-0.8,2.6-1.2,3.3c-0.6,0.2-2.4,0.6-4,0.6c-5.4,0-7.7-3.7-7.7-7.1c0-4.5,3.5-7.5,8.3-7.5
		c1.7,0,3.2,0.5,3.8,0.6c0.2,1.2,0.3,2.1,0.4,3.2l-0.6,0.2c-0.6-2.3-1.9-3.2-4.2-3.2c-3.6,0-5.5,3-5.5,6.3c0,4,2.4,6.8,5.6,6.8
		c2.2,0,3.4-1.2,4.4-3.3L320.4,33z"/>
	<path fill="#FFFFFF" d="M340,23.2c-1.8,0.2-1.9,0.3-1.9,2v8.7c0,1.8,0.2,1.9,1.9,2v0.6h-5.8v-0.6c1.8-0.1,2-0.2,2-2v-4.3h-7.3v4.3
		c0,1.8,0.2,1.9,1.9,2v0.6h-5.7v-0.6c1.7-0.1,1.9-0.2,1.9-2v-8.7c0-1.8-0.2-1.9-1.9-2v-0.6h5.6v0.6c-1.6,0.2-1.8,0.3-1.8,2v3.5h7.3
		v-3.5c0-1.8-0.2-1.9-1.9-2v-0.6h5.6V23.2z"/>
</g>
</svg>
