<?xml version="1.0" encoding="utf-8"?>
<!-- Generator: Adobe Illustrator 26.4.1, SVG Export Plug-In . SVG Version: 6.00 Build 0)  -->
<svg version="1.1" id="Ebene_1" xmlns="http://www.w3.org/2000/svg" xmlns:xlink="http://www.w3.org/1999/xlink" x="0px" y="0px"
	 viewBox="0 0 96 60" style="enable-background:new 0 0 96 60;" xml:space="preserve">
<style type="text/css">
	.st0{fill:#82643C;}
</style>
<g>
	<path class="st0" d="M0.2,60v-1.1c7.2-0.6,8-1.4,8-9.4V10.5c0-8-0.7-8.8-8-9.4V0h23.1v1.1c-7.2,0.6-8,1.4-8,9.4v39.1
		c0,8,0.7,8.8,8,9.4V60H0.2z"/>
	<path class="st0" d="M95.8,1.1V0H80.6v0L62.6,25.8L44.5,0l-3.2,0h-12v1.1c7.2,0.6,8,1.4,8,9.4v39.1c0,8-0.7,8.8-8,9.4V60h23.1v-1.1
		c-7.2-0.6-8-1.4-8-9.4V4.9l18.1,25.8L80.6,4.9v44.7c0,8-0.7,8.8-8,9.4V60h23.1v-1.1c-7.2-0.6-8-1.4-8-9.4V10.5
		C87.9,2.5,88.6,1.7,95.8,1.1z"/>
</g>
</svg>
