<?xml version="1.0" encoding="utf-8"?>
<!-- Generator: Adobe Illustrator 26.4.1, SVG Export Plug-In . SVG Version: 6.00 Build 0)  -->
<svg version="1.0" id="Ebene_1" xmlns="http://www.w3.org/2000/svg" xmlns:xlink="http://www.w3.org/1999/xlink" x="0px" y="0px"
	 viewBox="0 0 161 281" enable-background="new 0 0 161 281" xml:space="preserve">
<circle fill="none" stroke="#80643C" stroke-miterlimit="10" cx="80.5" cy="200.5" r="80"/>
<circle fill="none" stroke="#80643C" stroke-miterlimit="10" cx="80.5" cy="80.5" r="80"/>
<path fill="none" stroke="#80643C" stroke-miterlimit="10" d="M94.5,1c0,12.7-28,12.7-28,25.4c0,12.7,28,12.7,28,25.4
	c0,12.7-28,12.7-28,25.4c0,12.7,28,12.7,28,25.4c0,12.7-28,12.7-28,25.4c0,12.7,28,12.7,28,25.4c0,12.7-28,12.7-28,25.4
	c0,12.7,28,12.7,28,25.4c0,12.7-28,12.7-28,25.4c0,12.7,28,12.7,28,25.4c0,12.7-28,12.7-28,25.4"/>
</svg>
